<svg width="507.576" height="355.321" viewBox="0 0 134.296 94.012" xml:space="preserve" xmlns="http://www.w3.org/2000/svg"><path style="fill:#95a5a6;fill-opacity:1;stroke-width:.28856" d="M56.488 41.62a20.738 20.738 0 0 1 3.059-.209h2.898l-2.296 2.31-2.298 2.312 2.664 2.664 2.666 2.665 6.925-6.922 6.927-6.922-6.926-6.926-6.925-6.925-2.666 2.665-2.665 2.666 2.253 2.266 2.253 2.266-3.411.197c-.906.05-1.714.115-2.458.196z"/><path style="fill:#f1c40f;fill-opacity:1;stroke-width:.0852864" d="m80.931 13.656-.235.176a2.44 2.44 0 0 0-.412.41l-.175.236-.025 20.74c-.013 11.407-.002 20.863.025 21.014.061.342.42.778.764.928.141.062.374.116.514.12.177.006 2.76-1.243 8.337-4.025l8.082-4.034 8.088 4.043c7.758 3.877 8.103 4.04 8.456 3.992.403-.054.703-.24.976-.607l.176-.235V14.478l-.176-.235a2.439 2.439 0 0 0-.41-.411l-.236-.176H97.806zm16.861 8.208c.312-.004.623.098.857.305.112.102.723 1.24 1.356 2.53a312.627 312.627 0 0 0 1.173 2.372c.01.014 1.2.196 2.641.405 2.873.415 3.06.474 3.324 1.032.103.216.135.438.106.736l-.041.428-1.96 1.95-1.96 1.95.123.702c.823 4.71.824 4.726.487 5.24-.19.29-.84.568-1.173.502-.141-.03-1.283-.589-2.534-1.245-1.252-.657-2.323-1.193-2.38-1.193-.058 0-1.134.538-2.394 1.197-1.26.659-2.417 1.218-2.574 1.242-.196.03-.402-.017-.665-.153-.461-.238-.7-.619-.698-1.113.002-.2.174-1.361.386-2.58.21-1.22.395-2.307.41-2.415.022-.16-.352-.576-1.925-2.142L88.4 29.671l-.04-.427c-.05-.53.141-.977.523-1.213.2-.124.884-.257 2.657-.514 1.31-.191 2.5-.368 2.64-.394.24-.046.327-.195 1.397-2.382.629-1.285 1.244-2.429 1.366-2.544.229-.216.54-.328.85-.333z"/><path style="fill:#3498db;fill-opacity:1;stroke-width:.216787" d="m41.689 13.202-.064 3.264c-.071 3.782.186 4.835 1.353 5.527.606.36 1.134.409 4.422.41h3.734l-4.723-4.6z"/><path style="fill:#3498db;fill-opacity:1;stroke-width:.216787" d="M40.303 13.156h-9.568c-10.59 0-10.674.01-11.528 1.374-.396.632-.413 1.462-.413 20.44 0 18.94.018 19.81.412 20.438.225.36.743.815 1.152 1.01.668.32 2.12.358 14.538.361 15.032.008 14.809.022 15.709-1.206.567-.777.536.265.512-17.127l-.02-14.596-3.9-.006c-4.418-.006-5.274-.214-6.231-1.52-.507-.693-.53-.881-.595-4.945z"/><text xml:space="preserve" style="font-weight:700;font-size:11.1968px;font-family:Helvetica;-inkscape-font-specification:'Helvetica Bold';fill:#34495e;fill-opacity:1;stroke:none;stroke-width:.743221;stroke-dasharray:none" x="17.963" y="80.647"><tspan style="font-size:11.1968px;fill:#34495e;fill-opacity:1;stroke-width:.743221" x="17.963" y="80.647">Readme converter</tspan></text><path style="fill:#fff;stroke-width:.0366976" d="M22.736 44.82a2.02 2.02 0 0 1-1.52-1.12 2.727 2.727 0 0 1-.18-.487c-.027-.136-.039-2.238-.039-7.024 0-7.538-.017-7.002.232-7.51.138-.284.501-.668.796-.84.111-.066.332-.153.493-.194.287-.073.372-.073 12.514-.073h12.223l.275.077a2.056 2.056 0 0 1 1.4 1.317l.086.239.01 6.88c.008 4.88 0 6.95-.029 7.118a2.04 2.04 0 0 1-1.32 1.553l-.24.082-12.256.005c-6.741.003-12.341-.007-12.444-.023zm24.657-1.43a.864.864 0 0 0 .218-.24l.084-.147V29.425l-.093-.164a.665.665 0 0 0-.256-.258l-.165-.091-11.964-.011c-6.58-.007-12.067 0-12.193.01a.745.745 0 0 0-.61.404l-.077.146v13.542l.099.17a.602.602 0 0 0 .257.248l.157.078 12.205-.01 12.204-.009zm-22.36-7.177V31.61l1.349.002 1.349.002 1.333 1.667 1.332 1.666.173-.21c.095-.115.699-.866 1.341-1.668l1.17-1.46h2.705v9.212h-2.714l-.01-2.622-.01-2.623-1.32 1.65a74.027 74.027 0 0 1-1.34 1.647c-.01 0-.613-.747-1.34-1.658l-1.321-1.656-.01 2.63-.01 2.632h-2.678zm15.96 3.606a930.96 930.96 0 0 0-2.816-3.104l-.307-.336h2.687v-4.77h2.678v4.697h2.681l-1.933 2.175a677.579 677.579 0 0 1-2.01 2.255l-.076.082z"/></svg>