<svg width="721" height="508" viewBox="0 0 190.765 134.408" xml:space="preserve" xmlns="http://www.w3.org/2000/svg"><path style="fill:#95a5a6;fill-opacity:1;stroke-width:.264583" d="M59.538 46.654a19.015 19.015 0 0 1 2.804-.191H65l-2.106 2.118-2.107 2.12 2.443 2.442 2.444 2.444 6.35-6.347 6.351-6.347-6.35-6.35-6.35-6.35-2.444 2.444-2.444 2.444 2.066 2.078 2.066 2.078-3.128.18c-.83.047-1.571.106-2.253.18z" transform="matrix(1.51453 0 0 1.51453 -9.593 -10.935)"/><path style="fill:#f1c40f;fill-opacity:1;stroke-width:.0781997" d="m81.95 21.014-.216.161a2.238 2.238 0 0 0-.378.377l-.16.216-.023 19.016c-.012 10.46-.002 19.13.023 19.268.056.314.385.714.7.851.13.057.343.107.472.11.162.006 2.531-1.139 7.644-3.69l7.41-3.699 7.416 3.707c7.114 3.555 7.43 3.704 7.754 3.66.369-.049.644-.22.895-.556l.161-.216V21.768l-.161-.216a2.236 2.236 0 0 0-.377-.377l-.216-.161H97.422zM97.41 28.54c.286-.004.571.09.785.28.103.093.663 1.137 1.244 2.32a286.65 286.65 0 0 0 1.075 2.174c.01.013 1.1.18 2.422.372 2.634.38 2.805.434 3.048.946.094.198.123.402.097.675l-.038.392-1.797 1.788-1.797 1.788.113.644c.754 4.318.755 4.333.446 4.805-.174.265-.77.52-1.075.46-.13-.027-1.177-.54-2.324-1.142-1.148-.602-2.13-1.094-2.182-1.094-.053 0-1.04.494-2.195 1.098-1.155.604-2.216 1.117-2.36 1.139-.18.027-.369-.016-.61-.141-.423-.218-.642-.567-.64-1.02.002-.183.16-1.248.354-2.366.193-1.119.362-2.115.376-2.214.02-.146-.323-.528-1.765-1.964l-1.79-1.782-.037-.391c-.046-.486.13-.896.48-1.112.184-.114.81-.236 2.436-.472 1.202-.175 2.292-.337 2.421-.361.22-.042.3-.179 1.281-2.184.576-1.178 1.14-2.227 1.252-2.333.21-.198.495-.3.78-.305z" transform="matrix(1.51453 0 0 1.51453 -9.593 -10.935)"/><path style="fill:#3498db;fill-opacity:1;stroke-width:.198774" d="m45.968 20.598-.058 2.993c-.066 3.467.17 4.433 1.24 5.067.556.33 1.04.375 4.055.376h3.423l-4.33-4.218z" transform="matrix(1.51453 0 0 1.51453 -9.593 -10.935)"/><path style="fill:#3498db;fill-opacity:1;stroke-width:.198774" d="M44.697 20.556h-8.773c-9.71 0-9.787.009-10.57 1.259-.363.58-.378 1.341-.378 18.742 0 17.366.016 18.164.377 18.74.207.33.682.747 1.057.926.612.294 1.944.328 13.33.331 13.783.007 13.578.02 14.403-1.106.52-.712.492.243.47-15.704l-.019-13.383-3.576-.005c-4.05-.006-4.835-.197-5.713-1.395-.465-.635-.485-.807-.545-4.533z" transform="matrix(1.51453 0 0 1.51453 -9.593 -10.935)"/><text xml:space="preserve" style="font-weight:700;font-size:10.2665px;font-family:Helvetica;-inkscape-font-specification:'Helvetica Bold';fill:#34495e;fill-opacity:1;stroke:none;stroke-width:.681465;stroke-dasharray:none" x="24.214" y="82.439" transform="matrix(1.51453 0 0 1.51453 -9.593 -10.935)"><tspan style="font-size:10.2665px;fill:#34495e;fill-opacity:1;stroke-width:.681466" x="24.214" y="82.439">Readme converter</tspan></text><path style="fill:#fff;stroke-width:.0336484" d="M28.59 49.589a1.853 1.853 0 0 1-1.393-1.027 2.5 2.5 0 0 1-.165-.447c-.025-.125-.036-2.052-.036-6.44 0-6.912-.016-6.42.212-6.887.127-.26.46-.612.73-.77.102-.06.305-.14.452-.177.263-.067.341-.067 11.474-.067h11.208l.252.07a1.885 1.885 0 0 1 1.284 1.208l.078.219.01 6.309c.007 4.474 0 6.372-.027 6.526a1.87 1.87 0 0 1-1.21 1.424l-.22.075-11.238.005c-6.181.002-11.316-.007-11.41-.021zm22.608-1.312a.792.792 0 0 0 .2-.22l.077-.134v-12.45l-.085-.151a.61.61 0 0 0-.235-.236l-.151-.084-10.97-.01c-6.033-.006-11.064 0-11.18.01a.683.683 0 0 0-.56.37l-.07.134v12.417l.091.156a.552.552 0 0 0 .236.227l.144.071 11.19-.008 11.19-.009zm-20.501-6.58v-4.222l1.236.002 1.237.002 1.222 1.528 1.222 1.528.158-.192c.087-.106.641-.795 1.23-1.53l1.072-1.338h2.481v8.446h-2.489l-.009-2.404-.009-2.405-1.211 1.513a67.876 67.876 0 0 1-1.228 1.51c-.01 0-.562-.685-1.228-1.52l-1.212-1.519-.009 2.412-.009 2.413h-2.456zm14.633 3.306c-1.13-1.25-2.243-2.476-2.582-2.846l-.281-.308h2.463v-4.374h2.456v4.307h2.458l-1.772 1.994a621.278 621.278 0 0 1-1.843 2.068l-.07.075z" transform="matrix(1.51453 0 0 1.51453 -9.593 -10.935)"/></svg>